<?xml version="1.0" encoding="utf-8"?>
<!-- Generator: Adobe Illustrator 23.0.1, SVG Export Plug-In . SVG Version: 6.00 Build 0)  -->
<svg version="1.1" id="Capa_1" xmlns="http://www.w3.org/2000/svg" xmlns:xlink="http://www.w3.org/1999/xlink" x="0px" y="0px"
	 viewBox="0 0 93.8 12.4" style="enable-background:new 0 0 93.8 12.4;" xml:space="preserve">
<g>
	<path d="M0,11.6h0.9c0.5,0,0.8-0.3,0.8-0.8v-0.1v-0.2V1.6c0-0.3,0-0.5-0.2-0.6C1.4,0.9,1.2,0.9,1.1,0.8c-0.1,0-0.2,0-0.2,0H0V0.1
		h10.3l0.2,3.6H9.9c0-0.2,0-0.4-0.1-0.6c-0.1-0.6-0.5-1.2-1-1.6C8.1,0.9,7.4,0.7,6.3,0.7H4.9c-0.4,0-0.5,0.1-0.5,0.6v4h0.7
		c1.6,0,2.5-0.8,2.5-2.4h0.6v5.3H7.6V7.9c0-0.7-0.3-1.3-0.6-1.6C6.6,6.1,5.8,5.9,5.1,5.9H4.4v5c0,0.5,0.1,0.7,0.6,0.7h1.4
		c2,0,3.3-1.2,3.6-3.3h0.7l-0.3,3.9H0L0,11.6z"/>
	<path d="M10.9,0.2H17v0.6h-1c-0.2,0-0.5,0.1-0.6,0.2s-0.2,0.3-0.2,0.6v9.3c0,0.5,0.2,0.7,0.6,0.7h1c0.9,0,1.6-0.4,2.2-1.3
		c0.4-0.5,0.6-1.1,0.8-1.7c0.1-0.4,0.1-0.6,0.3-1.2h0.7l-0.2,4.8h-9.8v-0.6h0.9c0.2,0,0.5-0.1,0.6-0.2c0.1-0.1,0.2-0.3,0.2-0.7v-0.2
		V1.6c0-0.4,0-0.5-0.2-0.6c-0.1-0.1-0.2-0.1-0.4-0.2c-0.1,0-0.2,0-0.2,0h-0.8L10.9,0.2z"/>
	<path d="M49.4,0.8h-0.2c-0.3,0.1-0.5,0.1-0.6,0.2c-0.2,0.1-0.2,0.2-0.2,0.6v9.1c0,0.3,0.1,0.5,0.2,0.6s0.2,0.1,0.4,0.2
		c0.1,0,0.2,0.1,0.3,0.1H50v0.6h-6.1v-0.6h0.8c0.1,0,0.1,0,0.2-0.1c0.4-0.1,0.6-0.3,0.6-0.6v-0.2V1.1l-3.4,11.2h-1.3L37.5,1.1v9.6
		c0,0.4,0,0.5,0.2,0.6c0.1,0.1,0.2,0.1,0.4,0.2c0.1,0,0.2,0.1,0.2,0.1h0.9v0.6H35v-0.6h0.8c0.5,0,0.8-0.4,0.8-0.9v-0.3V1.7
		c0-0.3,0-0.5-0.2-0.6C36.3,1,36.2,1,36,0.9c-0.1,0-0.2-0.1-0.2-0.1H35V0.2h5.2L42.5,8l2.4-7.8h4.5V0.8z"/>
	<path d="M49.8,0.1h5.4v0.6h-0.9c-0.2,0-0.4,0.1-0.6,0.2c-0.1,0.1-0.2,0.4-0.2,0.7v7c0,0.7,0,1.1,0.1,1.3c0.2,0.7,1,1.1,2.1,1.1
		c1.7,0,2.4-0.7,2.4-2.6V1.6c0-0.5-0.3-0.9-0.8-0.9h-0.8V0.1H60v0.6h-0.2c-0.4,0-0.8,0.4-0.8,0.9v6.8c0,0.6-0.1,1.2-0.2,1.6
		c-0.1,0.6-0.3,1-0.6,1.3c-0.6,0.6-2,1-3.3,1c-1.2,0-2.4-0.3-3.2-0.8c-0.7-0.5-1-1.2-1-2.7V1.6V1.4c0-0.1-0.1-0.3-0.2-0.4
		c-0.1-0.1-0.2-0.1-0.4-0.2c-0.1,0-0.2,0-0.2,0h-0.2L49.8,0.1z"/>
	<path d="M59.9,11.6h0.8c0.5,0,0.8-0.4,0.8-0.9v-0.2V1.7c0-0.3-0.1-0.5-0.2-0.6S61.1,1,60.9,0.9c-0.1,0-0.2,0-0.2,0h-0.4V0.1h3.8
		l5.1,8.5v-7c0-0.3-0.1-0.5-0.2-0.6s-0.2-0.1-0.4-0.2c-0.1,0-0.2,0-0.2,0h-0.9V0.1H71v0.6h-0.2c0,0-0.1,0-0.2,0
		c-0.3,0.1-0.5,0.3-0.5,0.6v0.2v10.6H68l-5.6-9.3v7.8c0,0.4,0,0.5,0.2,0.7c0.1,0.1,0.2,0.1,0.4,0.2h0.2h0.9v0.6h-4.2L59.9,11.6
		L59.9,11.6z"/>
	<path d="M71,11.6h0.9c0.2-0.1,0.5-0.1,0.6-0.2c0.1-0.1,0.2-0.3,0.2-0.7V9.8V1.6c0-0.4,0-0.5-0.2-0.6c-0.1-0.1-0.2-0.2-0.3-0.2
		s-0.2,0-0.2,0h-0.4V0.1h5.8c1.3,0,2.3,0.3,3.2,1C82.1,2.2,83,4,83,6c0,3.6-2.3,6.2-5.3,6.2H71V11.6z M76.1,11.6h1.3
		c1.1,0,1.9-0.7,2.2-2c0.2-0.8,0.3-2.1,0.3-3.2c0-0.3,0-0.5-0.1-1.3c0-0.5,0-0.9,0-1.1c0-0.4-0.1-0.7-0.1-1.1
		c-0.3-1.4-1-2.2-2.1-2.2h-1.4c-0.5,0-0.6,0.1-0.6,0.8v9.4C75.5,11.4,75.6,11.6,76.1,11.6z"/>
	<path d="M88.6,0c3.1,0,5.2,2.5,5.2,6.2c0,3.7-2.1,6.2-5.2,6.2c-3.1,0-5.2-2.5-5.2-6.2C83.4,2.5,85.5,0,88.6,0z M86.4,6.2
		c0,2,0,2.6,0.1,3.4c0.2,1.3,0.9,2,2.1,2c1.1,0,1.8-0.7,2.1-2c0.1-0.8,0.2-1.3,0.2-3.4c0-2,0-2.6-0.2-3.4c-0.2-1.3-1-2-2.1-2
		c-1.1,0-1.8,0.7-2.1,2C86.4,3.6,86.4,4.1,86.4,6.2z"/>
	<path d="M28.6,6.5V9h5.1c0.4-0.8,0.6-1.6,0.7-2.5H28.6z"/>
	<path d="M28.6,12.2c1.9-0.1,3.6-1.1,4.7-2.6h-4.7L28.6,12.2z"/>
	<path d="M23.3,9.6c1,1.5,2.7,2.5,4.7,2.6V9.6H23.3z"/>
	<path d="M28,6.5h-5.7c0,0.9,0.3,1.7,0.7,2.5h5V6.5z"/>
	<path d="M28,3.3h-5c-0.4,0.8-0.6,1.6-0.7,2.5H28V3.3z"/>
	<path d="M28,0.1c-1.9,0.1-3.6,1.1-4.6,2.5H28V0.1z"/>
	<path d="M33.2,2.7c-1-1.5-2.7-2.4-4.6-2.5v2.5H33.2z"/>
	<path d="M28.6,5.8h5.7c0-0.9-0.3-1.7-0.7-2.5h-5L28.6,5.8z"/>
</g>
</svg>
