<?xml version="1.0" encoding="utf-8"?>
<!-- Generator: Adobe Illustrator 23.0.0, SVG Export Plug-In . SVG Version: 6.00 Build 0)  -->
<svg version="1.1" id="Capa_1" xmlns="http://www.w3.org/2000/svg" xmlns:xlink="http://www.w3.org/1999/xlink" x="0px" y="0px"
	 viewBox="0 0 322.2 68.3" style="enable-background:new 0 0 322.2 68.3;" xml:space="preserve">
<style type="text/css">
	.st0{clip-path:url(#SVGID_2_);}
	.st1{fill-rule:evenodd;clip-rule:evenodd;}
</style>
<g id="Grupo_3" transform="translate(819 -127.871)">
	<path id="Trazado_1" d="M-716.2,185.3v5.9l4.8,1.8v3.1h214.5v-10.9H-716.2z"/>
	<path id="Trazado_2" d="M-819,185.3v10.9h82.9v-2.9l4.1-1.8v-6.1H-819z"/>
	<g id="Grupo_2">
		<g>
			<defs>
				<rect id="SVGID_1_" x="-819" y="127.9" width="322.2" height="68.3"/>
			</defs>
			<clipPath id="SVGID_2_">
				<use xlink:href="#SVGID_1_"  style="overflow:visible;"/>
			</clipPath>
			<g id="Grupo_1" class="st0">
				<path id="Trazado_3" d="M-775.3,127.9H-819v1.4l6.6,2v45.9l-6.6,2v1.4h45.5l1.6-17.1l-1.6-0.3l-6.7,8.6
					c-2.7,3.5-5.5,5.2-10.1,5.5l-10.2,0.5V156h2.8c4.7,0,6.5,1.7,8.5,6.8l1,2.6h1.7v-22.2h-1.7l-1,2.7c-1.9,5.1-3.8,6.8-8.5,6.8
					h-2.8v-21.9l7.5,0.3c5.8,0.2,7.9,1.7,10.8,6l6.5,9.1l1.6-0.4L-775.3,127.9z"/>
				<path id="Trazado_4" d="M-751.3,158.4l-6-10.1l3.4-1.5v-1.1h-18.6v1.1l3.7,1.5l11.3,16.7l-10.5,12.5l-4,2.1v1.1h12.6v-1.1
					l-3.1-1.7l6.8-10.1l6.2,10.1l-3.7,1.6v1.1h18.9v-1.1l-3.7-1.6l-11.7-16.8l10.1-12.3l4.4-2.1v-1.1H-748v1.1l3,1.8L-751.3,158.4z"
					/>
				<path id="Trazado_5" d="M-622.2,155.1c0-5.5-2.5-10.6-9.5-10.6c-4.2,0-8.6,2.1-13.2,6.4l-0.3-0.2l0-5.1h-13.6v1.1l4.4,2.1v28.8
					l-4.1,1.8v1.1h17.2v-1.1l-3.3-1.8v-25.5c2.2-1,4.6-1.5,7-1.5c4.4,0,5.5,3.2,5.5,7.5v19.5l-3.3,1.8v1.1h17.2v-1.1l-4.1-1.8V155.1
					z"/>
				<path id="Trazado_6" d="M-590.1,169.7c0-6.7-5.4-9.1-10.4-11.1c-4.4-1.8-8.5-3.3-8.5-7.2c-0.1-2.5,2-4.6,4.5-4.7
					c0.1,0,0.1,0,0.2,0c3.7,0,5.7,2.4,10.3,8.6l1.5-0.3l-0.2-9.5c-3.1-0.9-6.4-1.4-9.6-1.4c-8.3,0-14.3,5-14.3,11.1
					c0,6.8,5.4,9.2,10.4,11.2c4.4,1.8,8.5,3.3,8.5,7.2c0,3.1-1.8,5.2-4.9,5.2c-4,0-6.8-2.5-12.5-10.1l-1.5,0.2l0.2,10.5
					c3.9,1.5,8,2.2,12.1,2.1C-597,181.4-590.1,176.8-590.1,169.7"/>
				<path id="Trazado_7" class="st1" d="M-536.1,162.7c0-9.8-5.6-18.6-18-18.6c-12.3,0-18.9,9.4-18.9,18.6c0,9.9,5.6,18.7,18,18.7
					S-536.1,171.9-536.1,162.7 M-546.7,162.7c0,9.6-2.4,16.1-7.9,16.1s-7.9-6.5-7.9-16.1s2.4-16.1,7.9-16.1
					S-546.7,153.1-546.7,162.7"/>
				<path id="Trazado_8" class="st1" d="M-728.8,193.3l-4.1,1.8v1h18.7v-1l-4.8-1.8v-12.4c1.6,0.3,3.2,0.5,4.8,0.5
					c13,0,20.5-9.3,20.5-19.7c0-10.6-6.2-17.6-13.6-17.6c-4.5,0-9.1,2.6-11.9,5.3l-0.3-0.2v-3.6h-13.7v1.1l4.4,2.1L-728.8,193.3z
					 M-704.2,164.1c0,10.8-3.6,14.8-7.5,14.8c-3.4,0-5.4-1.4-7.2-4.2v-24.1c1.7-0.4,3.5-0.7,5.2-0.7
					C-707.6,149.9-704.2,154.2-704.2,164.1"/>
				<path id="Trazado_9" d="M-586,148.9v28.8l-4.3,1.8v1.1h18.2v-1.1l-4.1-1.8v-32h-14.3v1.1L-586,148.9z"/>
				<path id="Trazado_10" d="M-500.9,155.1c0-5.5-2.5-10.6-9.5-10.6c-4.2,0-8.6,2.1-13.1,6.4l-0.3-0.2l0-5.1h-13.6v1.1l4.4,2.1v28.8
					l-4.1,1.8v1.1h17.2v-1.1l-3.3-1.8v-25.5c2.2-1,4.6-1.5,7-1.5c4.4,0,5.5,3.2,5.5,7.5v19.5l-3.8,1.8v1.1h17.7v-1.1l-4.1-1.8
					L-500.9,155.1z"/>
				<path id="Trazado_11" d="M-587.6,134c0-3.4,2.7-6.1,6.1-6.1c3.4,0,6.1,2.7,6.1,6.1c0,3.4-2.7,6.1-6.1,6.1
					C-584.9,140.1-587.6,137.4-587.6,134C-587.6,134-587.6,134-587.6,134"/>
				<path id="Trazado_12" d="M-554.8,127.9h10.9l-8,12.2h-6.2L-554.8,127.9z"/>
				<path id="Trazado_13" class="st1" d="M-670,180.6h10v-1.1l-4.1-1.8l0-22.6c0-6.9-4.1-10.5-10.9-10.5c-7.2,0-17.5,3.5-17.5,9.9
					c-0.1,2.7,2,5,4.6,5.1c0.1,0,0.2,0,0.4,0c2.7,0,4.9-2.2,4.8-4.9c-0.1-2.4-1.3-4.6-3.2-6c1.2-0.2,2.5-0.3,3.8-0.3
					c6.4,0,8.2,3.1,8.2,7.5v7.1c-11.8,0.1-19.8,3.8-19.8,10.9c0,4.8,3.5,8.1,9.3,8.1c4.3,0,7.7-2,10.5-4.8l0.4,0.2
					C-673.5,179-671.9,180.6-670,180.6 M-673.9,175.6c-1.4,0.9-3,1.4-4.6,1.5c-2.8,0-4.8-2-4.8-5.4c0-4.2,2.4-6.5,9.5-7V175.6z"/>
			</g>
		</g>
	</g>
</g>
</svg>
