<?xml version="1.0" encoding="utf-8"?>
<!-- Generator: Adobe Illustrator 24.1.1, SVG Export Plug-In . SVG Version: 6.00 Build 0)  -->
<svg version="1.1" id="Capa_1" xmlns="http://www.w3.org/2000/svg" xmlns:xlink="http://www.w3.org/1999/xlink" x="0px" y="0px"
	 viewBox="0 0 101 28" style="enable-background:new 0 0 101 28;" xml:space="preserve">
<style type="text/css">
	.st0{fill-rule:evenodd;clip-rule:evenodd;}
</style>
<g>
	<polygon class="st0" points="12.7,24 8.5,12 8.5,21.8 10,21.8 10,27.9 0.5,27.9 0.5,21.8 2,21.8 2,6.2 0.5,6.2 0.5,0.1 9.5,0.1 
		12.9,9.5 16.2,0.1 25.1,0.1 25.1,6.2 23.6,6.2 23.6,21.8 25.1,21.8 25.1,27.9 15.6,27.9 15.6,21.8 17.1,21.8 17.1,12 	"/>
	<path class="st0" d="M40.5,0.1L44,21.8h1.1v6.1h-8.7v-6.1h1.1v-2.3h-4v2.3h1.1v6.1h-8.7v-6.1H27l3.5-21.6L40.5,0.1L40.5,0.1z
		 M36.9,15.8l-1.4-8.6l-1.4,8.6H36.9z"/>
	<path class="st0" d="M74.1,6.2v5.4h6.3V3.1l-2.9-2.9h-9.2l-2.9,2.9v21.8l2.9,2.9h9.2l2.9-2.9v-8.5h-6.3v5.4H72V6.2H74.1z"/>
	<path class="st0" d="M56.3,27.9v-11h-2v4.9h1.1v6.1H46v-6.1h1.5V6.2H46V0.1h14.3L63.2,3v8.7L60.8,14l2.4,2.3v5.3h1.5v6.1L56.3,27.9
		z M54.2,6.2v6.4h2.1V6.2H54.2z"/>
	<path class="st0" d="M95.9,0.1l3.5,21.6h1.1v6.1h-8.7v-6.1h1.1v-2.3h-4v2.3H90v6.1h-8.7v-6.1h1.1l3.5-21.6
		C85.9,0.1,95.9,0.1,95.9,0.1z M92.2,15.8l-1.4-8.6l-1.4,8.6H92.2z"/>
</g>
</svg>
